<?xml version="1.0" encoding="UTF-8"?> <svg xmlns="http://www.w3.org/2000/svg" width="16" height="15" viewBox="0 0 16 15" fill="none"><g clip-path="url(#clip0_17097_4939)"><path d="M1.65599 5.38503L6.52299 10.9801L4.17899 5.38503H1.65599ZM7.99999 11.8805L10.727 5.38503H5.27399L7.99999 11.8805ZM4.20299 4.30802L5.79699 1.07701H3.74999L1.49999 4.30802H4.20299ZM9.47699 10.9801L14.344 5.38503H11.821L9.47699 10.9801ZM5.33599 4.30802H10.664L9.06999 1.07701H6.92899L5.33599 4.30802ZM11.797 4.30802H14.5L12.25 1.07701H10.203L11.797 4.30802ZM12.898 0.218632L15.898 4.52666C15.9707 4.62789 16.0047 4.74421 16 4.87561C15.9953 5.007 15.951 5.12045 15.867 5.21594L8.36699 13.832C8.27299 13.944 8.15066 14 7.99999 14C7.84933 14 7.72699 13.944 7.63299 13.832L0.132993 5.21594C0.0496597 5.12045 0.00532639 5.007 -6.94353e-06 4.87561C-0.00534028 4.74421 0.0286597 4.62789 0.101993 4.52666L3.10199 0.218632C3.19599 0.0728774 3.32866 0 3.49999 0H12.5C12.672 0 12.8047 0.0728774 12.898 0.218632Z" fill="#be9e5c"></path></g><defs><clipPath id="clip0_17097_4939"><rect width="16" height="15" fill="white"></rect></clipPath></defs></svg> 